ply
format ascii 1.0
element vertex 60
property float x
property float y
property float z
end_header
4 4 32
8 4 16
12 4 28
12 4 32
12 4 36
16 4 48
20 4 60
20 8 64
20 12 116
24 4 72
24 4 80
24 4 92
24 8 60
24 8 64
24 8 68
24 8 72
24 8 76
24 12 52
28 4 84
28 4 92
28 4 108
28 8 72
28 8 80
28 8 84
28 8 116
32 4 96
32 4 100
32 8 96
32 8 100
32 12 96
32 12 100
32 12 104
32 16 68
36 4 108
36 4 112
36 8 108
36 8 112
36 12 92
36 12 96
36 12 100
36 12 104
36 12 108
36 12 112
40 4 120
40 4 124
40 8 120
40 8 124
40 12 100
40 12 104
40 12 108
40 12 112
40 12 116
40 12 120
40 12 124
40 20 88
48 16 124
48 24 104
56 16 120
56 28 120
56 28 124
